<svg width="30" height="29" viewBox="0 0 30 29" fill="none" xmlns="http://www.w3.org/2000/svg">
<path d="M29.01 5.81V23.21C29.01 23.97 28.87 24.69 28.6 25.34C27.74 27.49 25.65 29.01 23.2 29.01H5.81C3.36 29.01 1.25 27.49 0.41 25.34C0.15 24.69 0 23.97 0 23.21V5.81C0 5.49 0.03 5.16 0.09 4.85C0.15 4.44 0.26 4.05 0.41 3.67C0.56 3.28 0.76 2.92 0.98 2.58C1.05 2.48 1.13 2.38 1.21 2.28C1.36 2.08 1.51 1.89 1.7 1.71C1.98 1.43 2.28 1.17 2.6 0.97C3.51 0.35 4.62 0 5.81 0H23.21C25.66 0 27.75 1.52 28.61 3.67C28.87 4.32 29.02 5.05 29.02 5.8L29.01 5.81Z" fill="#032774"/>
<path d="M0 9.67969V12.8997L3.22 9.67969H0Z" fill="#032774"/>
<path d="M6.0401 0.00976562V4.43977L2.6001 0.979766C3.5101 0.359766 4.6201 0.00976562 5.8101 0.00976562H6.0401Z" fill="#032774"/>
<path d="M3.22009 4.85984H0.0900879C0.150088 4.44984 0.260088 4.05984 0.410088 3.67984C0.560088 3.28984 0.760088 2.92984 0.980088 2.58984L3.23009 4.84984L3.22009 4.85984Z" fill="#032774"/>
<path d="M14.5 4.84988V1.62988L11.28 4.84988H14.5Z" fill="#032774"/>
<path d="M12.88 0.00976562H8.45996V4.42977L12.88 0.00976562Z" fill="#032774"/>
<path d="M14.5 12.8997V9.67969H11.28L14.5 12.8997Z" fill="#032774"/>
<path d="M1.62988 14.5098H6.04988V10.0898L1.62988 14.5098Z" fill="#032774"/>
<path d="M8.45996 14.5098H12.88L8.45996 10.0898V14.5098Z" fill="#032774"/>
<path d="M14.5 1.61977L11.28 4.85977H14.5V9.67977H11.28L14.5 12.8998V13.4498L10.74 9.67977H9.65L14.48 14.5298H12.87L8.46 10.0998V14.5298H6.04V10.0998L1.63 14.5198H1.09L5.92 9.66977H4.83L0 14.5198V12.8898L3.22 9.66977H0V5.80977C0 5.48977 0.03 5.15977 0.09 4.84977H3.22L0.97 2.58977C1.04 2.48977 1.12 2.38977 1.2 2.28977L3.75 4.85977H4.82L1.7 1.71977C1.98 1.43977 2.28 1.17977 2.6 0.979766L6.04 4.42977V0.00976562H8.46V4.43977L12.87 0.00976562H13.41L8.58 4.85977H9.67L14.5 0.00976562V1.61977Z" fill="white"/>
<path d="M4.82996 4.85973H3.75996L1.20996 2.28973C1.35996 2.08973 1.50996 1.89973 1.69996 1.71973L4.82996 4.84973V4.85973Z" fill="#DF0333"/>
<path d="M9.65991 9.67969L14.4899 14.5097H14.4999V13.4397L10.7399 9.67969H9.65991Z" fill="#DF0333"/>
<path d="M8.58008 4.84977H9.66008L14.4901 0.00976562H13.4101L8.58008 4.84977Z" fill="#DF0333"/>
<path d="M5.92 9.67969H4.83L0 14.5097H1.08L5.92 9.67969Z" fill="#DF0333"/>
<path d="M14.5 5.80977H7.98V0.00976562H6.53V5.80977H0V8.70977H6.53V14.5098H7.98V8.70977H14.5V5.80977Z" fill="#DF0333"/>
<path d="M7.25001 23.7502L5.37001 25.6902L5.71001 23.0002L3.01001 22.7402L5.33001 21.3302L3.85001 19.0602L6.39001 19.9902L7.25001 17.4302L8.11001 19.9902L10.65 19.0602L9.18001 21.3302L11.49 22.7402L8.80001 23.0002L9.14001 25.6902L7.25001 23.7502Z" fill="white"/>
<path d="M21.7901 23.6303L21.01 24.4303L21.15 23.3203L20.05 23.2103L21 22.6403L20.39 21.7003L21.4401 22.0803L21.7901 21.0303L22.14 22.0803L23.1901 21.7003L22.58 22.6403L23.5301 23.2103L22.42 23.3203L22.56 24.4303L21.7901 23.6303Z" fill="white"/>
<path d="M18.05 13.7602L17.2701 14.5602L17.41 13.4502L16.3 13.3502L17.26 12.7702L16.65 11.8302L17.7001 12.2202L18.05 11.1602L18.4 12.2202L19.4501 11.8302L18.84 12.7702L19.7901 13.3502L18.68 13.4502L18.82 14.5602L18.05 13.7602Z" fill="white"/>
<path d="M21.79 7.01016L21.01 7.81016L21.15 6.71016L20.04 6.60016L20.99 6.02016L20.39 5.08016L21.43 5.47016L21.79 4.41016L22.14 5.47016L23.18 5.08016L22.58 6.02016L23.53 6.60016L22.42 6.71016L22.56 7.81016L21.79 7.01016Z" fill="white"/>
<path d="M26.0701 12.1L25.2901 12.9L25.4301 11.79L24.3301 11.68L25.2801 11.1L24.6701 10.17L25.7201 10.55L26.0701 9.5L26.4201 10.55L27.4701 10.17L26.8601 11.1L27.8101 11.68L26.7001 11.79L26.8501 12.9L26.0701 12.1Z" fill="white"/>
<path d="M23.03 15.9902L22.4 16.4102L22.61 15.6802L22.01 15.2102L22.77 15.1802L23.03 14.4702L23.3 15.1802L24.05 15.2102L23.46 15.6802L23.67 16.4102L23.03 15.9902Z" fill="white"/>
</svg>
