<svg width="29" height="30" viewBox="0 0 29 30" fill="none" xmlns="http://www.w3.org/2000/svg">
<path d="M22.8801 6.37012H9.91007C6.69007 6.37012 4.07007 8.78012 4.07007 11.7501V23.7001C4.07007 26.6601 6.69007 29.0801 9.91007 29.0801H22.8801C26.1001 29.0801 28.7201 26.6701 28.7201 23.7001V11.7501C28.7201 8.79012 26.1001 6.37012 22.8801 6.37012Z" fill="#808080"/>
<path d="M29.01 5.79V23.2C29.01 23.95 28.86 24.66 28.6 25.33C27.76 27.48 25.65 28.99 23.2 28.99H5.81C3.36 28.99 1.27 27.48 0.41 25.33C0.15 24.66 0 23.95 0 23.2V5.79C0 5.04 0.15 4.32 0.41 3.66C1.27 1.51 3.36 0 5.81 0H23.2C25.65 0 27.74 1.51 28.6 3.66C28.86 4.33 29.01 5.04 29.01 5.79Z" fill="white"/>
<path d="M29.01 5.79V9.66H0.0100098V5.79C0.0100098 5.04 0.16001 4.32 0.42001 3.66C1.27001 1.51 3.36001 0 5.81001 0H23.2C25.65 0 27.74 1.51 28.6 3.66C28.86 4.33 29.01 5.04 29.01 5.79Z" fill="#FF9933"/>
<path d="M29.01 19.3198V23.1898C29.01 23.9398 28.86 24.6498 28.6 25.3198C27.76 27.4698 25.65 28.9798 23.2 28.9798H5.81C3.36 28.9798 1.27 27.4698 0.41 25.3198C0.15 24.6498 0 23.9398 0 23.1898V19.3198H29H29.01Z" fill="#128807"/>
<path d="M15.02 14.9303C15.02 14.9303 15.02 14.9303 15.02 14.9203C15.02 14.9203 15.02 14.9203 15.02 14.9103V14.8903L15.55 15.2903L17.38 16.2103L15.67 15.0903L15.06 14.8303C15.06 14.8303 15.06 14.8303 15.06 14.8203C15.06 14.8203 15.06 14.8203 15.06 14.8103C15.06 14.8103 15.06 14.8103 15.06 14.8003C15.06 14.8003 15.06 14.8003 15.06 14.7903L15.67 15.0403L17.67 15.4603L15.73 14.8203L15.08 14.7303C15.08 14.7303 15.08 14.7303 15.08 14.7203C15.08 14.7203 15.08 14.7203 15.08 14.7103C15.08 14.7003 15.08 14.7103 15.08 14.7003V14.6803L15.73 14.7603L17.77 14.6403L15.73 14.5203L15.08 14.6003C15.08 14.6003 15.08 14.6003 15.08 14.5903V14.5703C15.08 14.5703 15.08 14.5703 15.08 14.5603C15.08 14.5603 15.08 14.5603 15.08 14.5503C15.08 14.5503 15.08 14.5503 15.08 14.5403C15.08 14.5403 15.08 14.5403 15.08 14.5303L15.73 14.4403L17.67 13.8003L15.67 14.2203L15.06 14.4703C15.06 14.4703 15.06 14.4703 15.06 14.4603C15.06 14.4603 15.06 14.4603 15.06 14.4503C15.06 14.4503 15.06 14.4503 15.06 14.4403C15.06 14.4403 15.06 14.4403 15.06 14.4303L15.67 14.1703L17.38 13.0503L15.55 13.9703L15.02 14.3703C15.02 14.3703 15.02 14.3703 15.02 14.3603C15.02 14.3603 15.02 14.3603 15.02 14.3503C15.02 14.3403 15.02 14.3503 15.02 14.3403L15.54 13.9303L16.9 12.4003L15.37 13.7603L14.96 14.2803V14.2703C14.96 14.2703 14.96 14.2703 14.95 14.2703V14.2603L15.35 13.7303L16.27 11.9003L15.15 13.6103L14.89 14.2203C14.89 14.2203 14.89 14.2203 14.88 14.2203C14.88 14.2203 14.88 14.2203 14.87 14.2203C14.87 14.2203 14.87 14.2203 14.86 14.2203C14.86 14.2203 14.86 14.2203 14.85 14.2203L15.1 13.6103L15.52 11.6103L14.88 13.5503L14.79 14.2003C14.79 14.2003 14.79 14.2003 14.78 14.2003C14.78 14.2003 14.78 14.2003 14.77 14.2003C14.77 14.2003 14.77 14.2003 14.76 14.2003C14.76 14.2003 14.76 14.2003 14.75 14.2003L14.83 13.5503L14.71 11.5103L14.59 13.5503L14.67 14.2003C14.67 14.2003 14.67 14.2003 14.66 14.2003C14.66 14.2003 14.66 14.2003 14.65 14.2003C14.65 14.2003 14.65 14.2003 14.64 14.2003C14.64 14.2003 14.64 14.2003 14.63 14.2003C14.63 14.2003 14.63 14.2003 14.62 14.2003L14.53 13.5503L13.89 11.6103L14.31 13.6103L14.56 14.2203C14.56 14.2203 14.56 14.2203 14.55 14.2203C14.55 14.2203 14.55 14.2203 14.54 14.2203H14.53C14.53 14.2203 14.53 14.2203 14.52 14.2203L14.26 13.6103L13.14 11.9003L14.06 13.7303L14.46 14.2603C14.46 14.2603 14.46 14.2603 14.45 14.2603C14.45 14.2603 14.45 14.2603 14.44 14.2603C14.44 14.2603 14.44 14.2603 14.43 14.2603L14.02 13.7503L12.49 12.3903L13.85 13.9203L14.37 14.3303C14.37 14.3303 14.37 14.3303 14.37 14.3403C14.37 14.3403 14.37 14.3403 14.37 14.3503C14.37 14.3503 14.37 14.3503 14.37 14.3603L13.84 13.9603L12.01 13.0403L13.72 14.1603L14.33 14.4203C14.33 14.4203 14.33 14.4203 14.33 14.4303V14.4503C14.33 14.4503 14.33 14.4503 14.33 14.4603L13.72 14.2103L11.72 13.7903L13.66 14.4303L14.31 14.5203C14.31 14.5203 14.31 14.5203 14.31 14.5303C14.31 14.5303 14.31 14.5303 14.31 14.5403C14.31 14.5403 14.31 14.5403 14.31 14.5503C14.31 14.5503 14.31 14.5503 14.31 14.5603C14.31 14.5603 14.31 14.5603 14.31 14.5703C14.31 14.5703 14.31 14.5703 14.31 14.5803L13.65 14.5103L11.61 14.6303L13.65 14.7503L14.31 14.6703V14.6903C14.31 14.6903 14.31 14.6903 14.31 14.7003C14.31 14.7003 14.31 14.7003 14.31 14.7103C14.31 14.7103 14.31 14.7103 14.31 14.7203C14.31 14.7203 14.31 14.7203 14.31 14.7303L13.66 14.8203L11.72 15.4603L13.72 15.0403L14.33 14.7903C14.33 14.7903 14.33 14.7903 14.33 14.8003C14.33 14.8003 14.33 14.8003 14.33 14.8103C14.33 14.8103 14.33 14.8103 14.33 14.8203C14.33 14.8203 14.33 14.8203 14.33 14.8303L13.72 15.0903L12.01 16.2103L13.84 15.2903L14.37 14.8903V14.9003C14.37 14.9003 14.37 14.9003 14.37 14.9103C14.37 14.9103 14.37 14.9103 14.37 14.9203L13.85 15.3303L12.49 16.8603L14.02 15.5003L14.43 14.9803C14.43 14.9803 14.43 14.9803 14.44 14.9803C14.44 14.9803 14.44 14.9803 14.45 14.9803C14.45 14.9803 14.45 14.9803 14.46 14.9803L14.06 15.5103L13.14 17.3403L14.26 15.6303L14.52 15.0203C14.52 15.0203 14.52 15.0203 14.53 15.0203C14.53 15.0203 14.53 15.0203 14.54 15.0203C14.54 15.0203 14.54 15.0203 14.55 15.0203C14.55 15.0203 14.55 15.0203 14.56 15.0203L14.31 15.6303L13.89 17.6303L14.53 15.6903L14.62 15.0403C14.62 15.0403 14.62 15.0403 14.63 15.0403C14.63 15.0403 14.63 15.0403 14.64 15.0403C14.64 15.0403 14.64 15.0403 14.65 15.0403C14.65 15.0403 14.65 15.0403 14.66 15.0403C14.66 15.0403 14.66 15.0403 14.67 15.0403L14.59 15.6903L14.71 17.7303L14.83 15.6903L14.75 15.0403C14.75 15.0403 14.75 15.0403 14.76 15.0403C14.76 15.0403 14.76 15.0403 14.77 15.0403C14.78 15.0403 14.77 15.0403 14.78 15.0403C14.78 15.0403 14.78 15.0403 14.79 15.0403L14.88 15.6903L15.52 17.6303L15.1 15.6303L14.85 15.0203C14.85 15.0203 14.85 15.0203 14.86 15.0203C14.86 15.0203 14.86 15.0203 14.87 15.0203C14.87 15.0203 14.87 15.0203 14.88 15.0203C14.88 15.0203 14.88 15.0203 14.89 15.0203L15.15 15.6303L16.27 17.3403L15.35 15.5103L14.95 14.9803C14.95 14.9803 14.95 14.9803 14.95 14.9703C14.95 14.9703 14.95 14.9703 14.96 14.9703L15.37 15.4903L16.9 16.8503L15.54 15.3203L15.02 14.9103V14.9303Z" fill="#000088"/>
<path d="M14.5 10.6201C12.37 10.6201 10.63 12.3501 10.63 14.4901C10.63 16.6301 12.37 18.3601 14.5 18.3601C16.63 18.3601 18.39 16.6301 18.39 14.4901C18.39 12.3501 16.65 10.6201 14.5 10.6201ZM17.88 14.7801C17.81 14.7701 17.72 14.8101 17.69 14.9001C17.66 15.0001 17.72 15.0901 17.82 15.1201H17.83C17.8 15.2901 17.76 15.4801 17.68 15.6401C17.61 15.6101 17.51 15.6401 17.46 15.7101C17.42 15.8001 17.45 15.9001 17.53 15.9401C17.53 15.9501 17.54 15.9501 17.54 15.9501C17.47 16.1101 17.38 16.2701 17.26 16.4301C17.2 16.3701 17.1 16.3701 17.04 16.4301C16.97 16.5001 16.97 16.6201 17.04 16.6801C17.04 16.6901 17.05 16.6901 17.05 16.6901C16.93 16.8401 16.8 16.9701 16.66 17.0801C16.62 17.0101 16.52 16.9801 16.44 17.0401C16.35 17.0801 16.32 17.1901 16.38 17.2701C16.38 17.2701 16.38 17.2801 16.39 17.2801C16.23 17.3801 16.07 17.4701 15.91 17.5601C15.88 17.4701 15.79 17.4301 15.71 17.4601C15.62 17.4701 15.56 17.5801 15.58 17.6601C15.58 17.6601 15.5833 17.6701 15.59 17.6901C15.5 17.7201 15.42 17.7501 15.33 17.7501C15.24 17.7901 15.16 17.8101 15.07 17.8201C15.06 17.7301 14.98 17.6701 14.9 17.6701C14.8 17.6701 14.73 17.7401 14.73 17.8401C14.64 17.8701 14.56 17.8701 14.47 17.8701C14.38 17.8701 14.28 17.8701 14.19 17.8601C14.2 17.7701 14.15 17.7001 14.06 17.6701C13.97 17.6401 13.87 17.7001 13.86 17.7901C13.85 17.8001 13.85 17.8201 13.85 17.8201C13.68 17.7901 13.5 17.7501 13.33 17.6701C13.36 17.6001 13.33 17.5001 13.26 17.4501C13.17 17.4101 13.07 17.4401 13.03 17.5201H13.02C12.86 17.4601 12.7 17.3601 12.56 17.2601C12.6 17.2001 12.6 17.1001 12.55 17.0401C12.48 16.9701 12.38 16.9701 12.3 17.0401C12.3 17.0401 12.29 17.0401 12.29 17.0501C12.14 16.9301 12.03 16.8001 11.91 16.6601C11.97 16.6201 12 16.5201 11.95 16.4401C11.89 16.3501 11.79 16.3201 11.72 16.3701C11.72 16.3701 11.71 16.3734 11.69 16.3801C11.59 16.2301 11.5 16.0801 11.41 15.9201C11.5 15.8901 11.54 15.8001 11.53 15.7201C11.5 15.6201 11.4 15.5801 11.31 15.5901C11.3 15.5901 11.3 15.6001 11.28 15.6001C11.22 15.4301 11.18 15.2501 11.15 15.0801C11.24 15.0701 11.29 14.9901 11.29 14.9101C11.29 14.8101 11.22 14.7401 11.13 14.7401H11.1C11.09 14.6501 11.09 14.5701 11.09 14.4801C11.09 14.3901 11.09 14.2901 11.1 14.2001C11.19 14.2101 11.27 14.1601 11.29 14.0701C11.32 13.9801 11.26 13.8801 11.17 13.8501H11.14C11.17 13.6801 11.23 13.5001 11.28 13.3301C11.35 13.3601 11.45 13.3301 11.5 13.2601C11.54 13.1701 11.51 13.0701 11.44 13.0301C11.44 13.0301 11.43 13.0268 11.41 13.0201C11.48 12.8601 11.58 12.7001 11.69 12.5601C11.76 12.6001 11.85 12.6001 11.92 12.5501C11.98 12.4801 11.98 12.3801 11.92 12.3001C11.91 12.3001 11.91 12.2901 11.89 12.2901C12.02 12.1401 12.15 12.0101 12.28 11.9001C12.34 11.9701 12.42 12.0001 12.51 11.9601C12.58 11.9001 12.61 11.8001 12.57 11.7101H12.56C12.7 11.5901 12.86 11.5101 13.02 11.4201C13.06 11.5101 13.15 11.5501 13.24 11.5201C13.33 11.5101 13.39 11.4001 13.36 11.3201C13.36 11.3201 13.3567 11.3101 13.35 11.2901C13.52 11.2301 13.7 11.1901 13.89 11.1601C13.89 11.2501 13.96 11.3001 14.05 11.3001C14.15 11.3001 14.22 11.2301 14.22 11.1301C14.31 11.1001 14.39 11.1001 14.48 11.1001C14.58 11.1001 14.67 11.1001 14.77 11.1101C14.76 11.2001 14.8 11.2701 14.89 11.3001C14.99 11.3301 15.08 11.2701 15.11 11.1801V11.1501C15.3 11.1801 15.47 11.2401 15.63 11.2901C15.6 11.3601 15.63 11.4601 15.7 11.5101C15.79 11.5501 15.89 11.5201 15.95 11.4401C16.12 11.5001 16.27 11.6001 16.43 11.7001C16.37 11.7701 16.37 11.8601 16.44 11.9301C16.5 11.9901 16.61 11.9901 16.67 11.9301C16.67 11.9301 16.6733 11.9201 16.68 11.9001C16.75 11.9601 16.81 12.0001 16.87 12.1001C16.94 12.1301 17.02 12.2201 17.07 12.2901C17 12.3301 16.98 12.4401 17.03 12.5101C17.07 12.6001 17.17 12.6301 17.26 12.5801C17.26 12.5701 17.27 12.5701 17.27 12.5701C17.37 12.7101 17.47 12.8701 17.55 13.0301C17.46 13.0601 17.42 13.1601 17.45 13.2301C17.46 13.3301 17.57 13.3901 17.65 13.3601C17.66 13.3601 17.66 13.3501 17.68 13.3501C17.74 13.5201 17.78 13.7001 17.83 13.8901C17.74 13.8901 17.67 13.9601 17.67 14.0501C17.67 14.1501 17.74 14.2201 17.84 14.2201H17.87V14.4801C17.87 14.5801 17.87 14.6701 17.86 14.7701L17.88 14.7801Z" fill="#000088"/>
</svg>
