<svg width="29" height="29" viewBox="0 0 29 29" fill="none" xmlns="http://www.w3.org/2000/svg">
<path d="M9.79608 0L9.6021 28.8626H5.81946C3.39468 28.8626 1.26088 27.3077 0.484955 25.1698C0.0969909 24.4895 0 23.8092 0 23.0318V5.73365C0.0969909 4.95621 0.290973 4.27595 0.581946 3.59568C1.35787 1.45771 3.49167 0 5.91645 0H9.69909H9.79608Z" fill="#169B62"/>
<path d="M28.903 5.92802V23.2262C28.806 24.0036 28.612 24.6839 28.3211 25.3641C27.4482 27.5021 25.4113 28.9598 22.9866 28.9598H19.1069L19.3979 0H23.2775C25.7023 0 27.7391 1.55489 28.612 3.69286C28.903 4.37313 29 5.05339 29 5.83084L28.903 5.92802Z" fill="#FF883E"/>
<path d="M9.90511 0.069254L9.69897 28.9312L19.3008 29L19.507 0.138099L9.90511 0.069254Z" fill="white"/>
</svg>
