<svg width="29" height="29" viewBox="0 0 29 29" fill="none" xmlns="http://www.w3.org/2000/svg">
<path d="M29 5.81V23.21C29 23.97 28.85 24.68 28.59 25.34C27.74 27.49 25.64 29 23.19 29H5.79C3.34 29 1.23 27.49 0.39 25.34C0.13 24.67 0 23.96 0 23.21V5.81C0 5.05 0.14 4.33 0.39 3.66C1.25 1.51 3.33 0 5.79 0H23.19C25.64 0 27.75 1.51 28.59 3.66C28.85 4.33 29 5.05 29 5.81Z" fill="white"/>
<path d="M14.49 23.2403C19.3115 23.2403 23.22 19.3317 23.22 14.5103C23.22 9.68883 19.3115 5.78027 14.49 5.78027C9.66856 5.78027 5.76001 9.68883 5.76001 14.5103C5.76001 19.3317 9.66856 23.2403 14.49 23.2403Z" fill="#BB022C"/>
</svg>
