<svg width="29" height="29" viewBox="0 0 29 29" fill="none" xmlns="http://www.w3.org/2000/svg">
<path d="M29 5.81V9.67H0V5.81C0 5.05 0.139952 4.33 0.389866 3.68C1.25957 1.53 3.33885 0 5.798 0H23.192C25.6412 0 27.7504 1.53 28.5901 3.68C28.8501 4.33 29 5.06 29 5.81Z" fill="#AE1C28"/>
<path d="M29 19.3398V23.2098C29 23.9698 28.8501 24.6798 28.5902 25.3398C27.7405 27.4898 25.6412 28.9998 23.192 28.9998H5.79801C3.34886 28.9998 1.23959 27.4898 0.399875 25.3398C0.139965 24.6698 0.0100098 23.9598 0.0100098 23.2098V19.3398H29.01H29Z" fill="#21468B"/>
<path d="M29 9.66992H0V19.3399H29V9.66992Z" fill="white"/>
</svg>
