<svg width="29" height="29" viewBox="0 0 29 29" fill="none" xmlns="http://www.w3.org/2000/svg">
<path d="M29.01 5.8V14.5H0V5.8C0 5.04 0.15 4.32 0.41 3.67C1.26 1.51 3.36 0 5.81 0H23.21C25.66 0 27.75 1.51 28.61 3.66C28.87 4.31 29 5.04 29 5.79L29.01 5.8Z" fill="#EC2938"/>
<path d="M29.01 14.5V23.2C29.01 23.96 28.87 24.68 28.62 25.33C27.77 27.48 25.67 29.01 23.22 29.01H5.81C3.36 29.01 1.25 27.48 0.41 25.33C0.15 24.68 0 23.95 0 23.2V14.5H29.01Z" fill="white"/>
<path d="M6.34002 7.25004C6.34002 4.49004 8.53002 2.23004 11.29 2.09004C10.73 1.89004 10.12 1.79004 9.49002 1.79004C6.47002 1.79004 4.02002 4.24004 4.02002 7.25004C4.02002 10.26 6.47002 12.71 9.49002 12.71C10.12 12.71 10.73 12.6 11.29 12.41C8.53002 12.27 6.34002 10.01 6.34002 7.25004Z" fill="white"/>
<path d="M9.41004 5L9.70004 5.9H10.65L9.88004 6.46L10.18 7.36L9.41004 6.8L8.64004 7.36L8.94004 6.46L8.17004 5.9H9.12004L9.41004 5Z" fill="white"/>
<path d="M15.23 5L15.52 5.9H16.47L15.7 6.46L15.99 7.36L15.23 6.8L14.46 7.36L14.75 6.46L13.99 5.9H14.93L15.23 5Z" fill="white"/>
<path d="M12.3201 2.81982L12.6101 3.71982H13.5601L12.7901 4.27982L13.0901 5.17982L12.3201 4.61982L11.5501 5.17982L11.8501 4.27982L11.0801 3.71982H12.0301L12.3201 2.81982Z" fill="white"/>
<path d="M14.14 8.43994L14.43 9.33994H15.38L14.61 9.89994L14.9 10.7999L14.14 10.2399L13.37 10.7999L13.66 9.89994L12.9 9.33994H13.85L14.14 8.43994Z" fill="white"/>
<path d="M10.5 8.43994L10.79 9.33994H11.74L10.97 9.89994L11.27 10.7999L10.5 10.2399L9.73001 10.7999L10.03 9.89994L9.26001 9.33994H10.21L10.5 8.43994Z" fill="white"/>
</svg>
