<svg width="29" height="29" viewBox="0 0 29 29" fill="none" xmlns="http://www.w3.org/2000/svg">
<path d="M9.67 0V8.84L0.25 4.12C0.97 1.74 3.18 0 5.8 0H9.68H9.67Z" fill="#04247B"/>
<path d="M28.7499 4.12L19.3199 8.84V0H23.1899C25.8099 0 28.0199 1.74 28.7399 4.12H28.7499Z" fill="#04247B"/>
<path d="M9.66999 20.1602V29.0002H5.78999C3.16999 29.0002 0.95999 27.2602 0.23999 24.8802L9.66999 20.1602Z" fill="#04247B"/>
<path d="M28.75 24.8802C28.03 27.2602 25.82 29.0002 23.2 29.0002H19.33V20.1602L28.76 24.8802H28.75Z" fill="#04247B"/>
<path d="M29 7.24V19.6L28.45 19.32H24.12L29.01 21.77V23.2C29.01 23.78 28.92 24.35 28.76 24.88L19.33 20.16V29H9.68V20.16L0.25 24.88C0.15 24.56 0.08 24.23 0.04 23.89L9.16 19.32H4.83L0 21.74V9.41L0.53 9.67H4.86L0 7.24V5.8C0 5.22 0.09 4.65 0.25 4.12L9.68 8.84V0H19.33V8.84L28.76 4.12C28.86 4.43 28.92 4.76 28.96 5.09L19.81 9.67H24.14L29 7.24Z" fill="white"/>
<path d="M4.86 9.67023H0.53L0 9.41023V7.24023L4.86 9.67023Z" fill="#CE152A"/>
<path d="M29 19.6001V21.7701L24.11 19.3301H28.45L29 19.6001Z" fill="#CE152A"/>
<path d="M29.0001 5.79984V7.23984L24.1401 9.66984H19.8101L28.9601 5.08984C28.9901 5.31984 29.0001 5.55984 29.0001 5.78984V5.79984Z" fill="#CE152A"/>
<path d="M9.16 19.3298L0.04 23.8898C0.01 23.6598 0 23.4298 0 23.1998V21.7398L4.83 19.3198H9.16V19.3298Z" fill="#CE152A"/>
<path d="M29 11.6V17.4H17.4V29H11.6V17.4H0V11.6H11.6V0H17.4V11.6H29Z" fill="#CE152A"/>
</svg>
