<svg width="29" height="29" viewBox="0 0 29 29" fill="none" xmlns="http://www.w3.org/2000/svg">
<path d="M22.7717 6.42334H9.8287C6.61727 6.42334 3.98975 8.85624 3.98975 11.7757V23.6482C3.98975 26.5677 6.61727 29.0006 9.8287 29.0006H22.7717C25.9831 29.0006 28.6107 26.5677 28.6107 23.6482V11.7757C28.6107 8.85624 25.9831 6.42334 22.7717 6.42334Z" fill="#808080"/>
<path d="M27.7837 20.145H1.11913C0.501053 20.145 0 20.6461 0 21.2642C0 21.8822 0.501053 22.3833 1.11913 22.3833H27.7837C28.4018 22.3833 28.9028 21.8822 28.9028 21.2642C28.9028 20.6461 28.4018 20.145 27.7837 20.145Z" fill="white"/>
<path d="M27.7837 17.9058H1.11913C0.501052 17.9058 0 18.4068 0 19.0249C0 19.643 0.501051 20.144 1.11913 20.144H27.7837C28.4018 20.144 28.9028 19.643 28.9028 19.0249C28.9028 18.4068 28.4018 17.9058 27.7837 17.9058Z" fill="#B12233"/>
<path d="M27.7837 15.6675H1.11913C0.501053 15.6675 0 16.1685 0 16.7866C0 17.4047 0.501053 17.9057 1.11913 17.9057H27.7837C28.4018 17.9057 28.9028 17.4047 28.9028 16.7866C28.9028 16.1685 28.4018 15.6675 27.7837 15.6675Z" fill="white"/>
<path d="M28.027 22.2856C28.5107 22.2856 28.9028 22.6778 28.9028 23.1615V23.1615C28.9028 23.1615 28.9028 23.1615 28.9028 23.1615V23.1615C28.9028 23.9965 28.1606 24.5239 27.3256 24.5239H1.57288C0.767588 24.5239 0 23.9668 0 23.1615V23.1615V23.1615C0 22.6778 0.392128 22.2856 0.875842 22.2856H28.027Z" fill="#B12233"/>
<path d="M22.367 26.7617C24.5046 26.7617 25.2014 29 23.0638 29V29H5.74157V29C3.60399 29 4.30079 26.7617 6.43837 26.7617H22.367Z" fill="#B12233"/>
<path d="M28.8054 24.5234C28.7482 24.5234 28.6985 24.5624 28.6836 24.6176C28.5645 25.0589 28.384 25.499 28.16 25.92C27.8678 26.4692 27.2684 26.7617 26.6464 26.7617H1.99531C1.53703 26.7617 1.10278 26.552 0.865884 26.1597V26.1597C0.396606 25.3826 1.05574 24.5234 1.96355 24.5234H28.8054V24.5234Z" fill="white"/>
<path d="M28.7081 4.57323H0.703405C0.422389 4.57323 0.169108 4.36797 0.297639 4.11807V4.11807C0.333769 4.04783 0.401764 3.95013 0.428675 3.87587C0.608183 3.38048 0.856106 2.9583 1.10895 2.60934C1.14669 2.55724 1.15862 2.54201 1.17637 2.48017V2.48017C1.19811 2.40438 1.30935 2.33496 1.3882 2.33496H27.0047C27.463 2.33496 27.9017 2.55106 28.1382 2.94361C28.4192 3.41017 28.644 3.9024 28.7834 4.47838C28.7952 4.52692 28.7581 4.57323 28.7081 4.57323V4.57323Z" fill="white"/>
<path d="M23.0639 0.097168C25.2015 0.097168 24.5047 2.33543 22.3671 2.33543H2.43726C1.97181 2.33543 1.71453 1.78872 2.04366 1.45959V1.45959C3.01682 0.583747 4.37924 0.097168 5.74167 0.097168H23.0639V0.097168Z" fill="#B12233"/>
<path d="M28.9515 5.8385C28.9246 5.8385 28.9028 5.86028 28.9028 5.88715V6.27642C28.9028 6.51827 28.7067 6.71434 28.4649 6.71434H0.875842C0.392127 6.71434 0 6.32221 0 5.8385V5.8385C0 5.8385 0 5.8385 0 5.8385V5.8385C0 5.8385 0.742183 4.47607 1.57722 4.47607H28.192C28.5505 4.47607 28.8623 4.72489 28.9204 5.0786C28.9594 5.31649 28.9945 5.58204 28.9995 5.78988C29.0002 5.81675 28.9783 5.8385 28.9515 5.8385V5.8385Z" fill="#B12233"/>
<path d="M27.7837 8.95312H1.11913C0.501052 8.95312 0 9.45418 0 10.0723C0 10.6903 0.501051 11.1914 1.11913 11.1914H27.7837C28.4018 11.1914 28.9028 10.6903 28.9028 10.0723C28.9028 9.45418 28.4018 8.95312 27.7837 8.95312Z" fill="#B12233"/>
<path d="M27.7837 6.81152H1.11913C0.501053 6.81152 0 7.31258 0 7.93066C0 8.54874 0.501053 9.04979 1.11913 9.04979H27.7837C28.4018 9.04979 28.9028 8.54874 28.9028 7.93066C28.9028 7.31258 28.4018 6.81152 27.7837 6.81152Z" fill="white"/>
<path d="M27.7837 11.1914H1.11913C0.501053 11.1914 0 11.6925 0 12.3105C0 12.9286 0.501053 13.4297 1.11913 13.4297H27.7837C28.4018 13.4297 28.9028 12.9286 28.9028 12.3105C28.9028 11.6925 28.4018 11.1914 27.7837 11.1914Z" fill="white"/>
<path d="M27.7837 13.4292H1.11913C0.501053 13.4292 0 13.9303 0 14.5483C0 15.1664 0.501053 15.6675 1.11913 15.6675H27.7837C28.4018 15.6675 28.9028 15.1664 28.9028 14.5483C28.9028 13.9303 28.4018 13.4292 27.7837 13.4292Z" fill="#B12233"/>
<path d="M14.4027 0.0973159V8.46648C14.4027 12.4437 11.1786 15.6679 7.20137 15.6679V15.6679C3.22417 15.6679 0 12.4437 0 8.46648V5.83895C0 5.83895 0 5.83895 0 5.83895C0 5.83895 0 5.23348 0.111871 4.74969C0.154403 4.56576 0.174929 4.39925 0.212282 4.2142V4.2142C0.257864 3.98838 0.423472 3.77725 0.51242 3.56474C0.670478 3.18712 0.866048 2.856 1.06698 2.57139C1.13113 2.48053 1.15328 2.39818 1.21239 2.30396V2.30396C1.23038 2.27528 1.2744 2.22401 1.29378 2.19625C1.48775 1.91831 1.76569 1.64037 2.04363 1.36242C3.01679 0.486579 4.37921 0 5.74163 0H14.3054C14.3592 0 14.4027 0.0435698 14.4027 0.0973159V0.0973159Z" fill="#3C3B6D"/>
<path d="M12.4941 1.34628C12.5443 1.19546 12.758 1.19653 12.8083 1.34734V1.34734C12.8305 1.4141 12.8931 1.45938 12.9635 1.45938V1.45938C13.118 1.45938 13.1863 1.65399 13.0656 1.75053L13.025 1.78299C12.9757 1.82244 12.9562 1.88844 12.9762 1.94835V1.94835C13.0237 2.09084 12.855 2.20647 12.7377 2.11264V2.11264C12.6862 2.07147 12.6137 2.06811 12.5589 2.10466L12.4803 2.15705C12.3453 2.24705 12.1728 2.1153 12.2242 1.96137V1.96137C12.2467 1.89364 12.2241 1.81858 12.1684 1.77398V1.77398C12.0388 1.67028 12.1098 1.45938 12.2758 1.45938H12.3371C12.4083 1.45938 12.4715 1.41382 12.4941 1.34628V1.34628Z" fill="white"/>
<path d="M8.79606 1.34628C8.84633 1.19546 9.05965 1.19546 9.10992 1.34628V1.34628C9.13244 1.41382 9.19565 1.45938 9.26685 1.45938H9.27509C9.44097 1.45938 9.50611 1.67453 9.36809 1.76655L9.34809 1.77988C9.28916 1.81916 9.26871 1.89619 9.30038 1.95954V1.95954C9.36479 2.08835 9.2167 2.21908 9.09687 2.1392L9.04507 2.10466C8.99023 2.06811 8.91804 2.07124 8.86658 2.11241L8.85857 2.11882C8.74316 2.21114 8.57849 2.09632 8.62522 1.95611V1.95611C8.64637 1.89266 8.62244 1.82291 8.56679 1.78581L8.54242 1.76956C8.40304 1.67664 8.47113 1.45938 8.63864 1.45938V1.45938C8.70984 1.45938 8.77355 1.41382 8.79606 1.34628V1.34628Z" fill="white"/>
<path d="M5.10496 1.32514C5.16027 1.15921 5.38859 1.14298 5.46681 1.29942L5.50027 1.36633C5.52878 1.42336 5.58707 1.45938 5.65082 1.45938V1.45938C5.80994 1.45938 5.88023 1.65975 5.75598 1.75915L5.73689 1.77442C5.68114 1.81902 5.65911 1.89364 5.68168 1.96137V1.96137C5.73299 2.1153 5.5605 2.24705 5.4255 2.15705L5.34692 2.10466C5.29209 2.06811 5.21961 2.07147 5.16814 2.11264V2.11264C5.05086 2.20647 4.88217 2.09084 4.92966 1.94835V1.94835C4.94963 1.88844 4.93014 1.82244 4.88083 1.78299L4.84025 1.75053C4.71958 1.65399 4.78784 1.45938 4.94238 1.45938V1.45938C5.01275 1.45938 5.07522 1.41435 5.09748 1.3476L5.10496 1.32514Z" fill="white"/>
<path d="M2.18017 2.3358C2.15847 2.3358 2.14088 2.35339 2.14088 2.37509V2.39281C2.14088 2.4436 2.07948 2.46903 2.04357 2.43312L1.95392 2.34347C1.94882 2.33837 1.94323 2.33379 1.93723 2.32979L1.9085 2.31063C1.75457 2.20802 1.55404 2.20802 1.40011 2.31063L1.37138 2.32979C1.36538 2.33379 1.35979 2.33837 1.35469 2.34347L1.31869 2.37947C1.26298 2.43518 1.20051 2.40516 1.25399 2.3473V2.3473C1.25794 2.34302 1.26665 2.33339 1.26989 2.32855C1.45472 2.05357 1.72517 1.7786 1.99992 1.50362C2.02786 1.47566 2.06577 1.45996 2.1053 1.45996V1.45996C2.24617 1.45996 2.3084 1.63736 2.19839 1.72536L2.14404 1.76884C2.08437 1.81658 2.06298 1.89774 2.09136 1.9687L2.21665 2.28193C2.22697 2.30773 2.20796 2.3358 2.18017 2.3358V2.3358Z" fill="white"/>
<path d="M12.4941 4.46004C12.5443 4.30923 12.758 4.3103 12.8083 4.46111V4.46111C12.8305 4.52787 12.8931 4.57315 12.9635 4.57315V4.57315C13.118 4.57315 13.1863 4.76776 13.0656 4.8643L13.025 4.89676C12.9757 4.93621 12.9562 5.00221 12.9762 5.06212V5.06212C13.0237 5.20461 12.855 5.32024 12.7377 5.22641V5.22641C12.6862 5.18524 12.6137 5.18187 12.5589 5.21843L12.4803 5.27082C12.3453 5.36082 12.1728 5.22907 12.2242 5.07514V5.07514C12.2467 5.00741 12.2241 4.93235 12.1684 4.88775V4.88775C12.0388 4.78404 12.1098 4.57315 12.2758 4.57315H12.3371C12.4083 4.57315 12.4715 4.52759 12.4941 4.46004V4.46004Z" fill="white"/>
<path d="M8.79582 4.46004C8.84609 4.30923 9.05941 4.30923 9.10968 4.46004V4.46004C9.13219 4.52759 9.1954 4.57315 9.26661 4.57315H9.27484C9.44073 4.57315 9.50587 4.7883 9.36784 4.88032L9.34785 4.89365C9.28892 4.93293 9.26846 5.00996 9.30014 5.07331V5.07331C9.36455 5.20212 9.21645 5.33285 9.09662 5.25297L9.04482 5.21843C8.98999 5.18187 8.9178 5.18501 8.86634 5.22618L8.85832 5.23259C8.74292 5.32491 8.57824 5.21009 8.62498 5.06988V5.06988C8.64613 5.00643 8.62219 4.93668 8.56655 4.89958L8.54217 4.88333C8.40279 4.79041 8.47088 4.57315 8.6384 4.57315V4.57315C8.7096 4.57315 8.7733 4.52759 8.79582 4.46004V4.46004Z" fill="white"/>
<path d="M5.10496 4.43891C5.16027 4.27298 5.38859 4.25675 5.46681 4.41319L5.50027 4.4801C5.52878 4.53713 5.58707 4.57315 5.65082 4.57315V4.57315C5.80994 4.57315 5.88023 4.77352 5.75598 4.87292L5.73689 4.88819C5.68114 4.93279 5.65911 5.00741 5.68168 5.07514V5.07514C5.73299 5.22907 5.5605 5.36082 5.4255 5.27082L5.34692 5.21843C5.29209 5.18187 5.21961 5.18524 5.16814 5.22641V5.22641C5.05086 5.32024 4.88217 5.20461 4.92966 5.06212V5.06212C4.94963 5.00221 4.93014 4.93621 4.88083 4.89676L4.84025 4.8643C4.71958 4.76776 4.78784 4.57315 4.94238 4.57315V4.57315C5.01275 4.57315 5.07522 4.52812 5.09748 4.46137L5.10496 4.43891Z" fill="white"/>
<path d="M1.49723 4.46004C1.5475 4.30923 1.76082 4.30923 1.81109 4.46004V4.46004C1.83361 4.52759 1.89731 4.57315 1.96851 4.57315V4.57315C2.13603 4.57315 2.20412 4.79041 2.06474 4.88333L2.04036 4.89958C1.98472 4.93668 1.96078 5.00643 1.98193 5.06988V5.06988C2.02867 5.21009 1.86399 5.32491 1.74859 5.23259L1.74057 5.22618C1.68911 5.18501 1.61692 5.18187 1.56209 5.21843L1.48351 5.27082C1.34851 5.36082 1.17602 5.22907 1.22732 5.07514V5.07514C1.2499 5.00741 1.22732 4.93235 1.17157 4.88775V4.88775C1.04194 4.78404 1.11297 4.57315 1.27899 4.57315H1.34031C1.41151 4.57315 1.47472 4.52759 1.49723 4.46004V4.46004Z" fill="white"/>
<path d="M12.4941 7.57479C12.5443 7.42398 12.758 7.42505 12.8083 7.57586V7.57586C12.8305 7.64262 12.8931 7.6879 12.9635 7.6879V7.6879C13.118 7.6879 13.1863 7.8825 13.0656 7.97904L13.025 8.01151C12.9757 8.05096 12.9562 8.11696 12.9762 8.17687V8.17687C13.0237 8.31936 12.855 8.43498 12.7377 8.34116V8.34116C12.6862 8.29998 12.6137 8.29662 12.5589 8.33318L12.4803 8.38556C12.3453 8.47556 12.1728 8.34381 12.2242 8.18989V8.18989C12.2467 8.12216 12.2241 8.0471 12.1684 8.0025V8.0025C12.0388 7.89879 12.1098 7.6879 12.2758 7.6879H12.3371C12.4083 7.6879 12.4715 7.64234 12.4941 7.57479V7.57479Z" fill="white"/>
<path d="M8.79582 7.57479C8.84609 7.42398 9.05941 7.42398 9.10968 7.57479V7.57479C9.13219 7.64234 9.1954 7.6879 9.26661 7.6879H9.27484C9.44073 7.6879 9.50587 7.90305 9.36784 7.99506L9.34785 8.00839C9.28892 8.04768 9.26846 8.1247 9.30014 8.18805V8.18805C9.36455 8.31686 9.21645 8.4476 9.09662 8.36771L9.04482 8.33318C8.98999 8.29662 8.9178 8.29975 8.86634 8.34092L8.85832 8.34733C8.74292 8.43966 8.57824 8.32483 8.62498 8.18463V8.18463C8.64613 8.12118 8.62219 8.05143 8.56655 8.01433L8.54217 7.99808C8.40279 7.90516 8.47088 7.6879 8.6384 7.6879V7.6879C8.7096 7.6879 8.7733 7.64234 8.79582 7.57479V7.57479Z" fill="white"/>
<path d="M5.10496 7.55366C5.16027 7.38772 5.38859 7.3715 5.46681 7.52794L5.50027 7.59485C5.52878 7.65188 5.58707 7.6879 5.65082 7.6879V7.6879C5.80994 7.6879 5.88023 7.88827 5.75598 7.98767L5.73689 8.00293C5.68114 8.04753 5.65911 8.12216 5.68168 8.18989V8.18989C5.73299 8.34381 5.5605 8.47556 5.4255 8.38556L5.34692 8.33318C5.29209 8.29662 5.21961 8.29998 5.16814 8.34115V8.34115C5.05086 8.43498 4.88217 8.31936 4.92966 8.17687V8.17687C4.94963 8.11696 4.93014 8.05096 4.88083 8.01151L4.84025 7.97904C4.71958 7.8825 4.78784 7.6879 4.94238 7.6879V7.6879C5.01275 7.6879 5.07522 7.64287 5.09748 7.57611L5.10496 7.55366Z" fill="white"/>
<path d="M1.49723 7.57479C1.5475 7.42398 1.76082 7.42398 1.81109 7.57479V7.57479C1.83361 7.64234 1.89731 7.6879 1.96851 7.6879V7.6879C2.13603 7.6879 2.20412 7.90516 2.06474 7.99808L2.04036 8.01433C1.98472 8.05143 1.96078 8.12118 1.98193 8.18463V8.18463C2.02867 8.32483 1.86399 8.43966 1.74859 8.34733L1.74057 8.34092C1.68911 8.29975 1.61692 8.29662 1.56209 8.33318L1.48351 8.38556C1.34851 8.47556 1.17602 8.34381 1.22732 8.18989V8.18989C1.2499 8.12216 1.22732 8.0471 1.17157 8.0025V8.0025C1.04194 7.89879 1.11297 7.6879 1.27899 7.6879H1.34031C1.41151 7.6879 1.47472 7.64234 1.49723 7.57479V7.57479Z" fill="white"/>
<path d="M12.4909 10.6805C12.5369 10.5195 12.7659 10.5222 12.8119 10.6833V10.6833C12.8318 10.7528 12.8955 10.8013 12.9678 10.8013V10.8013C13.1209 10.8013 13.1885 10.9941 13.069 11.0898L13.025 11.1249C12.9757 11.1644 12.9562 11.2304 12.9762 11.2903V11.2903C13.0237 11.4328 12.855 11.5484 12.7377 11.4546V11.4546C12.6862 11.4134 12.6137 11.41 12.5589 11.4466L12.4803 11.499C12.3453 11.589 12.1728 11.4572 12.2242 11.3033V11.3033C12.2467 11.2356 12.2241 11.1605 12.1684 11.1159V11.1159C12.0388 11.0122 12.1098 10.8013 12.2758 10.8013H12.3307C12.4051 10.8013 12.4704 10.752 12.4909 10.6805V10.6805Z" fill="white"/>
<path d="M8.79262 10.6805C8.83864 10.5195 9.06686 10.5195 9.11287 10.6805V10.6805C9.1333 10.752 9.19898 10.8013 9.27334 10.8013V10.8013C9.43922 10.8013 9.50587 11.0165 9.36784 11.1085L9.34785 11.1218C9.28892 11.1611 9.26846 11.2381 9.30014 11.3015V11.3015C9.36455 11.4303 9.21645 11.561 9.09662 11.4811L9.04482 11.4466C8.98999 11.41 8.9178 11.4132 8.86634 11.4544L8.85832 11.4608C8.74292 11.5531 8.57824 11.4383 8.62498 11.2981V11.2981C8.64613 11.2346 8.62219 11.1649 8.56655 11.1278L8.53833 11.1089C8.4001 11.0168 8.46618 10.8013 8.63231 10.8013V10.8013C8.70666 10.8013 8.7722 10.752 8.79262 10.6805V10.6805Z" fill="white"/>
<path d="M5.10137 10.6573C5.15272 10.4776 5.40128 10.4618 5.47491 10.6336L5.50359 10.7005C5.5298 10.7617 5.58994 10.8013 5.65648 10.8013V10.8013C5.81372 10.8013 5.88318 10.9993 5.76039 11.0976L5.73689 11.1164C5.68114 11.161 5.65911 11.2356 5.68168 11.3033V11.3033C5.73299 11.4572 5.5605 11.589 5.4255 11.499L5.34692 11.4466C5.29209 11.41 5.21961 11.4134 5.16814 11.4546V11.4546C5.05086 11.5484 4.88217 11.4328 4.92966 11.2903V11.2903C4.94963 11.2304 4.93014 11.1644 4.88083 11.1249L4.83687 11.0898C4.71731 10.9941 4.78494 10.8013 4.93804 10.8013V10.8013C5.01036 10.8013 5.07391 10.7534 5.09378 10.6839L5.10137 10.6573Z" fill="white"/>
<path d="M1.49404 10.6805C1.54005 10.5195 1.76827 10.5195 1.81429 10.6805V10.6805C1.83471 10.752 1.90025 10.8013 1.9746 10.8013V10.8013C2.14073 10.8013 2.20681 11.0168 2.06858 11.1089L2.04036 11.1278C1.98472 11.1649 1.96078 11.2346 1.98193 11.2981V11.2981C2.02867 11.4383 1.86399 11.5531 1.74859 11.4608L1.74057 11.4544C1.68911 11.4132 1.61692 11.41 1.56209 11.4466L1.48351 11.499C1.34851 11.589 1.17602 11.4572 1.22732 11.3033V11.3033C1.2499 11.2356 1.22732 11.1605 1.17157 11.1159V11.1159C1.04194 11.0122 1.11297 10.8013 1.27899 10.8013H1.33392C1.40827 10.8013 1.47361 10.752 1.49404 10.6805V10.6805Z" fill="white"/>
<path d="M12.4909 13.7953C12.5369 13.6343 12.7659 13.637 12.8119 13.798V13.798C12.8318 13.8676 12.8955 13.9161 12.9678 13.9161V13.9161C13.1209 13.9161 13.1885 14.1089 13.069 14.2045L13.025 14.2397C12.9757 14.2791 12.9562 14.3451 12.9762 14.405V14.405C13.0237 14.5475 12.855 14.6632 12.7377 14.5693V14.5693C12.6862 14.5282 12.6137 14.5248 12.5589 14.5614L12.4803 14.6137C12.3453 14.7037 12.1728 14.572 12.2242 14.4181V14.4181C12.2467 14.3503 12.2241 14.2753 12.1684 14.2307V14.2307C12.0388 14.127 12.1098 13.9161 12.2758 13.9161H12.3307C12.4051 13.9161 12.4704 13.8668 12.4909 13.7953V13.7953Z" fill="white"/>
<path d="M8.79262 13.7953C8.83864 13.6343 9.06686 13.6343 9.11287 13.7953V13.7953C9.1333 13.8668 9.19898 13.9161 9.27333 13.9161V13.9161C9.43922 13.9161 9.50587 14.1312 9.36784 14.2232L9.34785 14.2366C9.28892 14.2759 9.26846 14.3529 9.30014 14.4162V14.4162C9.36455 14.545 9.21645 14.6758 9.09662 14.5959L9.04482 14.5614C8.98999 14.5248 8.9178 14.5279 8.86634 14.5691L8.85832 14.5755C8.74292 14.6678 8.57824 14.553 8.62498 14.4128V14.4128C8.64613 14.3494 8.62219 14.2796 8.56655 14.2425L8.53832 14.2237C8.4001 14.1315 8.46618 13.9161 8.63231 13.9161V13.9161C8.70666 13.9161 8.7722 13.8668 8.79262 13.7953V13.7953Z" fill="white"/>
<path d="M5.10137 13.772C5.15272 13.5923 5.40128 13.5765 5.47491 13.7483L5.50358 13.8153C5.5298 13.8764 5.58994 13.9161 5.65648 13.9161V13.9161C5.81372 13.9161 5.88318 14.1141 5.76039 14.2123L5.73689 14.2311C5.68114 14.2757 5.65911 14.3503 5.68168 14.4181V14.4181C5.73299 14.572 5.5605 14.7037 5.4255 14.6137L5.34692 14.5614C5.29209 14.5248 5.21961 14.5282 5.16814 14.5693V14.5693C5.05086 14.6632 4.88217 14.5475 4.92966 14.405V14.405C4.94963 14.3451 4.93014 14.2791 4.88083 14.2397L4.83686 14.2045C4.71731 14.1089 4.78494 13.9161 4.93804 13.9161V13.9161C5.01036 13.9161 5.07391 13.8681 5.09378 13.7986L5.10137 13.772Z" fill="white"/>
<path d="M1.49404 13.7953C1.54005 13.6343 1.76827 13.6343 1.81429 13.7953V13.7953C1.83471 13.8668 1.90025 13.9161 1.9746 13.9161V13.9161C2.14073 13.9161 2.20681 14.1315 2.06859 14.2237L2.04036 14.2425C1.98472 14.2796 1.96078 14.3494 1.98193 14.4128V14.4128C2.02867 14.553 1.86399 14.6678 1.74859 14.5755L1.74057 14.5691C1.68911 14.5279 1.61692 14.5248 1.56209 14.5614L1.48351 14.6137C1.34851 14.7037 1.17602 14.572 1.22732 14.4181V14.4181C1.2499 14.3503 1.22732 14.2753 1.17157 14.2307V14.2307C1.04194 14.127 1.11297 13.9161 1.27899 13.9161H1.33392C1.40827 13.9161 1.47361 13.8668 1.49404 13.7953V13.7953Z" fill="white"/>
<path d="M10.6417 12.2377C10.6878 12.0766 10.916 12.0766 10.962 12.2377V12.2377C10.9824 12.3092 11.048 12.3585 11.1223 12.3585V12.3585C11.2884 12.3585 11.3545 12.5739 11.2163 12.6661L11.1881 12.6849C11.1324 12.722 11.1085 12.7917 11.1296 12.8552V12.8552C11.1764 12.9954 11.0117 13.1102 10.8963 13.0179L10.8883 13.0115C10.8368 12.9703 10.7646 12.9672 10.7098 13.0037L10.6312 13.0561C10.4962 13.1461 10.3237 13.0144 10.375 12.8604V12.8604C10.3976 12.7927 10.375 12.7177 10.3193 12.6731V12.6731C10.1896 12.5693 10.2607 12.3585 10.4267 12.3585H10.4816C10.556 12.3585 10.6213 12.3092 10.6417 12.2377V12.2377Z" fill="white"/>
<path d="M6.94399 12.2377C6.99 12.0766 7.21823 12.0766 7.26424 12.2377V12.2377C7.28466 12.3092 7.35001 12.3585 7.42436 12.3585H7.47929C7.64531 12.3585 7.71634 12.5693 7.58671 12.6731V12.6731C7.53096 12.7177 7.50838 12.7927 7.53095 12.8604V12.8604C7.58226 13.0144 7.40977 13.1461 7.27477 13.0561L7.19619 13.0037C7.14135 12.9672 7.06917 12.9703 7.0177 13.0115L7.00969 13.0179C6.89429 13.1102 6.72961 12.9954 6.77635 12.8552V12.8552C6.79749 12.7917 6.77356 12.722 6.71791 12.6849L6.68969 12.6661C6.55147 12.5739 6.61755 12.3585 6.78368 12.3585V12.3585C6.85803 12.3585 6.92357 12.3092 6.94399 12.2377V12.2377Z" fill="white"/>
<path d="M3.34316 12.2377C3.38917 12.0766 3.6174 12.0766 3.66341 12.2377V12.2377C3.68383 12.3092 3.74937 12.3585 3.82372 12.3585V12.3585C3.98985 12.3585 4.05593 12.5739 3.91771 12.6661L3.88948 12.6849C3.83384 12.722 3.8099 12.7917 3.83105 12.8552V12.8552C3.87779 12.9954 3.71311 13.1102 3.59771 13.0179L3.5897 13.0115C3.53823 12.9703 3.46604 12.9672 3.41121 13.0037L3.33263 13.0561C3.19763 13.1461 3.02514 13.0144 3.07645 12.8604V12.8604C3.09902 12.7927 3.07644 12.7177 3.02069 12.6731V12.6731C2.89106 12.5693 2.96209 12.3585 3.12811 12.3585H3.18304C3.25739 12.3585 3.32273 12.3092 3.34316 12.2377V12.2377Z" fill="white"/>
<path d="M0.220466 12.6662C0.150112 12.7131 0.125693 12.8051 0.163507 12.8807L0.227879 13.0094C0.279576 13.1128 0.169889 13.2225 0.0664942 13.1708V13.1708C0.0257422 13.1504 0 13.1088 0 13.0632V12.2617V12.2617C0 12.3155 0.0435698 12.359 0.0973158 12.359H0.158319C0.314961 12.359 0.376472 12.5622 0.246138 12.6491L0.220466 12.6662Z" fill="white"/>
<path d="M10.6449 9.13192C10.6952 8.98111 10.9085 8.98111 10.9588 9.13192V9.13192C10.9813 9.19947 11.045 9.24503 11.1162 9.24503V9.24503C11.2837 9.24503 11.3518 9.46229 11.2124 9.55521L11.1881 9.57146C11.1324 9.60856 11.1085 9.67831 11.1296 9.74176V9.74176C11.1764 9.88196 11.0117 9.99679 10.8963 9.90446L10.8883 9.89805C10.8368 9.85688 10.7646 9.85375 10.7098 9.89031L10.6312 9.94269C10.4962 10.0327 10.3237 9.90094 10.375 9.74702V9.74702C10.3976 9.67929 10.375 9.60423 10.3193 9.55963V9.55963C10.1896 9.45592 10.2607 9.24503 10.4267 9.24503H10.488C10.5592 9.24503 10.6224 9.19947 10.6449 9.13192V9.13192Z" fill="white"/>
<path d="M6.94719 9.13192C6.99746 8.98111 7.21077 8.98111 7.26104 9.13192V9.13192C7.28356 9.19947 7.34677 9.24503 7.41797 9.24503H7.47929C7.64531 9.24503 7.71634 9.45592 7.58671 9.55963V9.55963C7.53096 9.60423 7.50838 9.67929 7.53095 9.74702V9.74702C7.58226 9.90094 7.40977 10.0327 7.27477 9.94269L7.19619 9.89031C7.14135 9.85375 7.06917 9.85688 7.0177 9.89805L7.00969 9.90446C6.89429 9.99679 6.72961 9.88196 6.77635 9.74176V9.74176C6.79749 9.67831 6.77356 9.60856 6.71791 9.57146L6.69354 9.55521C6.55416 9.46229 6.62225 9.24503 6.78976 9.24503V9.24503C6.86096 9.24503 6.92467 9.19947 6.94719 9.13192V9.13192Z" fill="white"/>
<path d="M3.34635 9.13192C3.39663 8.98111 3.60994 8.98111 3.66021 9.13192V9.13192C3.68273 9.19947 3.74643 9.24503 3.81763 9.24503V9.24503C3.98515 9.24503 4.05324 9.46229 3.91386 9.55521L3.88948 9.57146C3.83384 9.60856 3.8099 9.67831 3.83105 9.74176V9.74176C3.87779 9.88196 3.71311 9.99679 3.59771 9.90446L3.5897 9.89805C3.53823 9.85688 3.46604 9.85375 3.41121 9.89031L3.33263 9.94269C3.19763 10.0327 3.02514 9.90094 3.07645 9.74702V9.74702C3.09902 9.67929 3.07644 9.60423 3.02069 9.55963V9.55963C2.89106 9.45592 2.96209 9.24503 3.12811 9.24503H3.18943C3.26063 9.24503 3.32384 9.19947 3.34635 9.13192V9.13192Z" fill="white"/>
<path d="M0.220466 9.55292C0.150112 9.59982 0.125693 9.69177 0.163507 9.7674L0.227879 9.89614C0.279576 9.99954 0.169889 10.1092 0.0664942 10.0575V10.0575C0.0257422 10.0372 0 9.9955 0 9.94994V9.14844V9.14844C0 9.20218 0.0435698 9.24575 0.0973158 9.24575H0.158319C0.314961 9.24575 0.376473 9.44891 0.246139 9.5358L0.220466 9.55292Z" fill="white"/>
<path d="M10.6449 6.01717C10.6952 5.86636 10.9085 5.86636 10.9588 6.01717V6.01717C10.9813 6.08472 11.045 6.13028 11.1162 6.13028V6.13028C11.2837 6.13028 11.3518 6.34754 11.2124 6.44046L11.1881 6.45671C11.1324 6.49381 11.1085 6.56356 11.1296 6.62701V6.62701C11.1764 6.76721 11.0117 6.88204 10.8963 6.78972L10.8883 6.78331C10.8368 6.74214 10.7646 6.739 10.7098 6.77556L10.6312 6.82794C10.4962 6.91795 10.3237 6.7862 10.375 6.63227V6.63227C10.3976 6.56454 10.375 6.48948 10.3193 6.44488V6.44488C10.1896 6.34117 10.2607 6.13028 10.4267 6.13028H10.488C10.5592 6.13028 10.6224 6.08472 10.6449 6.01717V6.01717Z" fill="white"/>
<path d="M6.94719 6.01717C6.99746 5.86636 7.21077 5.86636 7.26104 6.01717V6.01717C7.28356 6.08472 7.34677 6.13028 7.41797 6.13028H7.47929C7.64531 6.13028 7.71634 6.34117 7.58671 6.44488V6.44488C7.53096 6.48948 7.50838 6.56454 7.53095 6.63227V6.63227C7.58226 6.7862 7.40977 6.91795 7.27477 6.82794L7.19619 6.77556C7.14135 6.739 7.06917 6.74214 7.0177 6.78331L7.00969 6.78972C6.89429 6.88204 6.72961 6.76721 6.77635 6.62701V6.62701C6.79749 6.56356 6.77356 6.49381 6.71791 6.45671L6.69354 6.44046C6.55416 6.34754 6.62225 6.13028 6.78976 6.13028V6.13028C6.86096 6.13028 6.92467 6.08472 6.94719 6.01717V6.01717Z" fill="white"/>
<path d="M3.34635 6.01717C3.39663 5.86636 3.60994 5.86636 3.66021 6.01717V6.01717C3.68273 6.08472 3.74643 6.13028 3.81763 6.13028V6.13028C3.98515 6.13028 4.05324 6.34754 3.91386 6.44046L3.88948 6.45671C3.83384 6.49381 3.8099 6.56356 3.83105 6.62701V6.62701C3.87779 6.76721 3.71311 6.88204 3.59771 6.78972L3.5897 6.78331C3.53823 6.74214 3.46604 6.739 3.41121 6.77556L3.33263 6.82794C3.19763 6.91795 3.02514 6.7862 3.07645 6.63227V6.63227C3.09902 6.56454 3.07644 6.48948 3.02069 6.44488V6.44488C2.89106 6.34117 2.96209 6.13028 3.12811 6.13028H3.18943C3.26063 6.13028 3.32384 6.08472 3.34635 6.01717V6.01717Z" fill="white"/>
<path d="M0.190821 6.8003C0.19335 6.80789 0.19688 6.8151 0.201316 6.82176V6.82176C0.252499 6.89853 0.168737 6.99341 0.0862068 6.95215L0.0548813 6.93649C0.0212464 6.91967 0 6.88529 0 6.84769V6.0332V6.0332C0 6.08695 0.0435698 6.13052 0.0973158 6.13052H0.158319C0.314961 6.13052 0.376473 6.33368 0.246139 6.42057L0.206985 6.44667C0.142235 6.48984 0.114388 6.571 0.138997 6.64482L0.190821 6.8003Z" fill="white"/>
<path d="M10.6452 2.90389C10.6955 2.75308 10.9088 2.75308 10.959 2.90389V2.90389C10.9816 2.97144 11.0453 3.017 11.1165 3.017V3.017C11.284 3.017 11.3521 3.23426 11.2127 3.32718L11.1883 3.34343C11.1327 3.38053 11.1087 3.45028 11.1299 3.51373V3.51373C11.1766 3.65393 11.0119 3.76876 10.8965 3.67644L10.8885 3.67003C10.8371 3.62886 10.7649 3.62572 10.71 3.66228L10.6315 3.71466C10.4965 3.80467 10.324 3.67292 10.3753 3.51899V3.51899C10.3979 3.45126 10.3753 3.3762 10.3195 3.3316V3.3316C10.1899 3.22789 10.2609 3.017 10.4269 3.017H10.4883C10.5595 3.017 10.6227 2.97144 10.6452 2.90389V2.90389Z" fill="white"/>
<path d="M6.94694 2.90389C6.99721 2.75308 7.21053 2.75308 7.2608 2.90389V2.90389C7.28331 2.97144 7.34653 3.017 7.41773 3.017H7.47905C7.64506 3.017 7.7161 3.22789 7.58646 3.3316V3.3316C7.53071 3.3762 7.50813 3.45126 7.53071 3.51899V3.51899C7.58202 3.67292 7.40953 3.80467 7.27452 3.71466L7.19595 3.66228C7.14111 3.62572 7.06892 3.62886 7.01746 3.67003L7.00945 3.67644C6.89404 3.76876 6.72937 3.65393 6.7761 3.51373V3.51373C6.79725 3.45028 6.77332 3.38053 6.71767 3.34343L6.69329 3.32718C6.55392 3.23426 6.62201 3.017 6.78952 3.017V3.017C6.86072 3.017 6.92443 2.97144 6.94694 2.90389V2.90389Z" fill="white"/>
<path d="M3.34635 2.90389C3.39663 2.75308 3.60994 2.75308 3.66021 2.90389V2.90389C3.68273 2.97144 3.74643 3.017 3.81763 3.017V3.017C3.98515 3.017 4.05324 3.23426 3.91386 3.32718L3.88948 3.34343C3.83384 3.38053 3.8099 3.45028 3.83105 3.51373V3.51373C3.87779 3.65393 3.71311 3.76876 3.59771 3.67644L3.5897 3.67003C3.53823 3.62886 3.46604 3.62572 3.41121 3.66228L3.33263 3.71466C3.19763 3.80467 3.02514 3.67292 3.07645 3.51899V3.51899C3.09902 3.45126 3.07644 3.3762 3.02069 3.3316V3.3316C2.89106 3.22789 2.96209 3.017 3.12811 3.017H3.18943C3.26063 3.017 3.32384 2.97144 3.34635 2.90389V2.90389Z" fill="white"/>
</svg>
